<mxfile host="app.diagrams.net" modified="2022-02-27T01:26:00.434Z" agent="5.0 (Macintosh; Intel Mac OS X 10_15_7) AppleWebKit/537.36 (KHTML, like Gecko) Chrome/98.0.4758.109 Safari/537.36" etag="PIC0aygDVnPNMjt971ba" version="16.6.2" type="github">
  <diagram id="3228e29e-7158-1315-38df-8450db1d8a1d" name="Page-1">
    <mxGraphModel dx="1623" dy="595" grid="0" gridSize="10" guides="1" tooltips="1" connect="1" arrows="1" fold="1" page="1" pageScale="1" pageWidth="600" pageHeight="350" background="#EFF1F3" math="0" shadow="0">
      <root>
        <mxCell id="0" />
        <mxCell id="1" parent="0" />
        <mxCell id="aH1-eks404bDhsACtXEq-4" value="&lt;span style=&quot;font-size: 30px&quot;&gt;Mysql读写分离&lt;/span&gt;" style="text;html=1;strokeColor=none;fillColor=none;align=center;verticalAlign=middle;whiteSpace=wrap;rounded=0;" parent="1" vertex="1">
          <mxGeometry x="185.5" y="366" width="234" height="28" as="geometry" />
        </mxCell>
        <mxCell id="aCwFtpsxkANIIiVJshyV-3" value="" style="sketch=0;html=1;aspect=fixed;strokeColor=none;shadow=0;align=center;verticalAlign=top;fillColor=#4A919B;shape=mxgraph.gcp2.database_2;strokeWidth=2;" vertex="1" parent="1">
          <mxGeometry x="170" y="564.95" width="64" height="82.05" as="geometry" />
        </mxCell>
        <mxCell id="aCwFtpsxkANIIiVJshyV-6" value="" style="sketch=0;pointerEvents=1;shadow=0;dashed=0;html=1;strokeColor=none;fillColor=#67AB9F;labelPosition=center;verticalLabelPosition=bottom;verticalAlign=top;outlineConnect=0;align=center;shape=mxgraph.office.concepts.application_generic;" vertex="1" parent="1">
          <mxGeometry x="266.5" y="420" width="72" height="54.34" as="geometry" />
        </mxCell>
        <mxCell id="aCwFtpsxkANIIiVJshyV-8" value="&lt;font style=&quot;font-size: 22px&quot;&gt;master&lt;/font&gt;" style="text;html=1;strokeColor=none;fillColor=none;align=center;verticalAlign=middle;whiteSpace=wrap;rounded=0;" vertex="1" parent="1">
          <mxGeometry x="166" y="647" width="60" height="30" as="geometry" />
        </mxCell>
        <mxCell id="aCwFtpsxkANIIiVJshyV-9" value="&lt;font style=&quot;font-size: 22px&quot;&gt;slave&lt;/font&gt;" style="text;html=1;strokeColor=none;fillColor=none;align=center;verticalAlign=middle;whiteSpace=wrap;rounded=0;" vertex="1" parent="1">
          <mxGeometry x="374" y="647" width="60" height="30" as="geometry" />
        </mxCell>
        <mxCell id="aCwFtpsxkANIIiVJshyV-10" value="" style="shape=flexArrow;endArrow=classic;html=1;rounded=0;fontSize=22;width=12.666666666666666;endSize=10;strokeColor=none;fillColor=#9AC7BF;" edge="1" parent="1">
          <mxGeometry width="50" height="50" relative="1" as="geometry">
            <mxPoint x="256" y="606" as="sourcePoint" />
            <mxPoint x="352" y="606" as="targetPoint" />
          </mxGeometry>
        </mxCell>
        <mxCell id="aCwFtpsxkANIIiVJshyV-11" value="&lt;font color=&quot;#67ab9f&quot;&gt;code&lt;/font&gt;" style="text;html=1;strokeColor=none;fillColor=none;align=center;verticalAlign=middle;whiteSpace=wrap;rounded=0;fontSize=22;" vertex="1" parent="1">
          <mxGeometry x="280" y="438" width="45" height="24" as="geometry" />
        </mxCell>
        <mxCell id="aCwFtpsxkANIIiVJshyV-12" value="&lt;font color=&quot;#000000&quot; style=&quot;font-size: 14px&quot;&gt;主从同步&lt;/font&gt;" style="text;html=1;strokeColor=none;fillColor=none;align=center;verticalAlign=middle;whiteSpace=wrap;rounded=0;fontSize=22;fontColor=#67AB9F;" vertex="1" parent="1">
          <mxGeometry x="251" y="614" width="103" height="35" as="geometry" />
        </mxCell>
        <mxCell id="aCwFtpsxkANIIiVJshyV-15" value="" style="shape=flexArrow;endArrow=none;startArrow=classic;html=1;rounded=0;fontSize=14;fontColor=#000000;strokeColor=none;fillColor=#9AC7BF;width=12;endSize=5.513333333333333;endFill=0;" edge="1" parent="1">
          <mxGeometry width="100" height="100" relative="1" as="geometry">
            <mxPoint x="206" y="552" as="sourcePoint" />
            <mxPoint x="275" y="483" as="targetPoint" />
          </mxGeometry>
        </mxCell>
        <mxCell id="aCwFtpsxkANIIiVJshyV-16" value="写" style="text;html=1;strokeColor=none;fillColor=none;align=center;verticalAlign=middle;whiteSpace=wrap;rounded=0;fontSize=14;fontColor=#000000;" vertex="1" parent="1">
          <mxGeometry x="204" y="496" width="37" height="23" as="geometry" />
        </mxCell>
        <mxCell id="aCwFtpsxkANIIiVJshyV-17" value="" style="shape=flexArrow;endArrow=none;startArrow=classic;html=1;rounded=0;fontSize=14;fontColor=#000000;strokeColor=none;fillColor=#9AC7BF;width=12;endSize=5.513333333333333;endFill=0;" edge="1" parent="1">
          <mxGeometry width="100" height="100" relative="1" as="geometry">
            <mxPoint x="333" y="483" as="sourcePoint" />
            <mxPoint x="397" y="552" as="targetPoint" />
          </mxGeometry>
        </mxCell>
        <mxCell id="aCwFtpsxkANIIiVJshyV-18" value="读" style="text;html=1;strokeColor=none;fillColor=none;align=center;verticalAlign=middle;whiteSpace=wrap;rounded=0;fontSize=14;fontColor=#000000;" vertex="1" parent="1">
          <mxGeometry x="370" y="496" width="42" height="24" as="geometry" />
        </mxCell>
        <mxCell id="aCwFtpsxkANIIiVJshyV-19" value="" style="sketch=0;html=1;aspect=fixed;strokeColor=none;shadow=0;align=center;verticalAlign=top;fillColor=#535E80;shape=mxgraph.gcp2.database_2;strokeWidth=2;" vertex="1" parent="1">
          <mxGeometry x="370" y="564.95" width="64" height="82.05" as="geometry" />
        </mxCell>
      </root>
    </mxGraphModel>
  </diagram>
</mxfile>
